<svg width="36" height="26" viewBox="0 0 36 26" fill="none" xmlns="http://www.w3.org/2000/svg">
<g id="Group">
<path id="Vector" d="M1.33334 9.66665C1.33334 8.78259 1.68453 7.93475 2.30965 7.30962C2.93477 6.6845 3.78261 6.33331 4.66667 6.33331H31.3333C32.2174 6.33331 33.0652 6.6845 33.6904 7.30962C34.3155 7.93475 34.6667 8.78259 34.6667 9.66665V21.3333C34.6667 22.2174 34.3155 23.0652 33.6904 23.6903C33.0652 24.3155 32.2174 24.6666 31.3333 24.6666H24.8867C24.311 24.6667 23.7452 24.5176 23.2443 24.234C22.7434 23.9504 22.3245 23.5419 22.0283 23.0483L19.4283 18.715C19.2802 18.4686 19.0708 18.2647 18.8205 18.1231C18.5702 17.9816 18.2875 17.9072 18 17.9072C17.7125 17.9072 17.4298 17.9816 17.1795 18.1231C16.9292 18.2647 16.7198 18.4686 16.5717 18.715L13.9717 23.0483C13.6755 23.5419 13.2566 23.9504 12.7557 24.234C12.2548 24.5176 11.689 24.6667 11.1133 24.6666H4.66667C3.78261 24.6666 2.93477 24.3155 2.30965 23.6903C1.68453 23.0652 1.33334 22.2174 1.33334 21.3333V9.66665Z" stroke="white" stroke-width="2" stroke-linecap="round" stroke-linejoin="round"/>
<path id="Vector_2" d="M4.355 4.30165C4.96364 3.3888 5.78818 2.64027 6.75545 2.12247C7.72273 1.60467 8.80285 1.33361 9.9 1.33331H26.0967C27.1941 1.33333 28.2746 1.60427 29.2421 2.12208C30.2097 2.63989 31.0345 3.38856 31.6433 4.30165L33 6.33331H3L4.355 4.30165V4.30165Z" stroke="white" stroke-width="2" stroke-linecap="round" stroke-linejoin="round"/>
</g>
</svg>
